<?xml version="1.0" encoding="utf-8"?>
<!-- Generator: Adobe Illustrator 26.4.1, SVG Export Plug-In . SVG Version: 6.00 Build 0)  -->
<svg version="1.1" xmlns="http://www.w3.org/2000/svg" xmlns:xlink="http://www.w3.org/1999/xlink" x="0px" y="0px"
	 viewBox="0 0 595.28 841.89" style="enable-background:new 0 0 595.28 841.89;" xml:space="preserve">
<style type="text/css">
	.st0{fill-rule:evenodd;clip-rule:evenodd;fill:#FFFFFF;stroke:#000000;stroke-width:10;stroke-miterlimit:10;}
	.st1{fill:#FFFFFF;}
</style>
<g id="レイヤー_1">
	<g>
		<path d="M480.45,334.36c-2.91-4.7-5.58-9.47-8.69-13.94c-3.17-4.55-6.63-8.91-10.19-13.17c-16.15-19.34-34.03-37.02-52.22-54.41
			c-1.02-0.97-1.82-2.35-2.28-3.69c-1.2-3.48-3.47-5.81-6.84-7.12c-1.08-0.42-2.21-0.73-3.85-1.26
			c10.25-7.41,11.15-16.96,7.45-27.82c-9.04,3.39-15.7,8.67-16.98,19.37c-1.11-1.29-1.72-1.99-2.32-2.7
			c-9.76-11.52-20.05-22.52-31.43-32.45c-3.88-3.38-7.75-7.02-12.99-8.1c-8.06-1.66-16.17-3.09-24.29-4.39
			c-3.39-0.55-6.88-0.53-10.88-0.8c1.31-1.73,2.77-2.94,3.22-4.45c0.51-1.71,0.12-3.69,0.12-5.57c-7.29,0-14.15,0-21.26,0
			c0,1.97-0.4,3.9,0.12,5.55c0.48,1.54,1.92,2.78,3.17,4.47c-1.18,0.13-1.72,0.19-2.26,0.25c-7.56,0.82-15.15,1.43-22.67,2.5
			c-8.61,1.22-16.63,3.96-23.02,10.32c-6.86,6.83-13.9,13.47-20.66,20.39c-4.47,4.58-8.6,9.51-13.27,14.72
			c-1.35-10.44-7.9-15.85-17.01-19.06c-3.73,10.92-2.65,20.46,7.5,27.82c-1.65,0.5-2.65,0.75-3.6,1.11
			c-3.36,1.27-5.75,3.47-7.03,6.94c-0.57,1.54-1.5,3.12-2.68,4.25c-16.77,16.01-33.18,32.35-48.35,49.89
			c-7.32,8.46-14.43,17.1-19.83,26.99c-0.84,1.54-1.57,3.15-2.45,4.92c-6.52-9.37-15.21-15.13-25.94-17.75
			c-10.45-2.55-20.9-2.18-31.74,0.24c2.97,2.54,5.68,4.51,7.98,6.88c3.85,3.99,7.57,8.12,11.12,12.39
			c5.4,6.51,12.08,9.89,20.62,9.07c2.76-0.27,5.49-0.76,8.22-1.22c1.8-0.31,3.58-0.75,5.24-1.1c-1.19,3.58-2.66,6.87-3.36,10.32
			c-2.03,10.05,0.22,19.6,4.51,28.64c2.83,5.95,6.35,11.58,9.73,17.65c-0.48,0.64-0.97,1.28-1.43,1.93c-5.55,7.79-8.9,16.4-9.55,26
			c-0.9,13.19,3.43,24.8,10.82,35.45c0.9,1.29,1.13,2.29,0.5,3.86c-1.01,2.55-1.83,5.26-2.24,7.97c-1.57,10.5,0.81,20.49,4.33,30.28
			c1,2.78,2.28,5.45,3.52,8.37c-0.8-0.1-1.35-0.14-1.88-0.24c-12.02-2.26-22.77,0.67-32.51,7.88c-7.17,5.31-12.72,12.13-17.98,19.22
			c-1.3,1.75-2.58,3.52-4.08,5.57c0.94,0.14,1.45,0.27,1.98,0.3c8.79,0.5,17.59,0.87,26.37,1.5c10.86,0.77,20.38-2.05,28.33-9.72
			c2.73-2.64,5.66-5.07,8.5-7.59c-0.04,0.12,0.32,0.82,0.67,1.52c4.07,8.24,9.35,15.64,15.66,22.31
			c10.43,11.05,22.57,19.64,36.61,25.54c0.83,0.35,2.02,1.2,2.06,1.87c0.19,3.94,0.1,7.89,0.1,12.11c-1.07,0-1.91,0-2.76,0
			c-21.74,0-43.49,0-65.23,0c-0.71,0-1.5-0.18-2.12,0.06c-0.58,0.22-1.45,0.96-1.39,1.36c0.42,3-1.18,4.81-3.26,6.59
			c-1.37,1.16-2.48,2.68-3.5,4.18c-6.37,9.28-8.05,19.68-6.96,30.64c0.82,8.31,3.66,15.91,10.07,21.45c3.17,2.74,5.7,5.21,4.96,9.68
			c-0.01,0.05,0.09,0.12,0.23,0.28c117.63,0,235.35,0,353.35,0c0-1.18,0.11-2.21-0.02-3.2c-0.29-2.15,0.57-3.44,2.38-4.64
			c1.82-1.2,3.43-2.84,4.84-4.53c6.7-8.04,8.47-17.58,7.87-27.67c-0.65-10.99-4.22-20.76-12.75-28.26c-0.6-0.53-0.97-1.6-1-2.43
			c-0.13-3.98,0.09-3.51-3.74-3.51c-21.59-0.01-43.17,0-64.76-0.01c-0.91,0-1.82-0.09-2.86-0.15c0-3.63,0.13-6.97-0.05-10.29
			c-0.11-2.04,0.53-3.04,2.47-3.87c16.75-7.15,30.87-17.84,41.95-32.3c4.12-5.38,7.5-11.33,11.25-17.07
			c-0.23-0.11-0.06-0.08,0.04,0.03c1.14,1.21,2.31,2.41,3.4,3.66c8.92,10.27,19.88,15.32,33.71,13.92
			c7.96-0.81,15.99-0.97,23.99-1.43c0.91-0.05,1.82-0.12,2.7-0.18c0-0.44,0.06-0.63-0.01-0.73c-6.04-8.47-12.18-16.88-20.47-23.37
			c-8.99-7.04-19.06-10.57-30.6-9.16c-1.59,0.19-3.18,0.41-4.18,0.54c2.15-7.01,4.66-13.94,6.34-21.07
			c1.96-8.28,2.19-16.71-1.19-24.79c-0.86-2.05-0.57-3.38,0.64-5.12c13.97-20.11,14.16-43.26-0.06-61.97
			c-0.82-1.08-0.51-1.67,0.08-2.66c3.14-5.23,6.52-10.34,9.14-15.82c4.31-9.03,6.53-18.59,4.49-28.64c-0.71-3.48-2.21-6.8-3.35-10.2
			c-0.02,0.01,0.06-0.05,0.13-0.04c1.86,0.4,3.72,0.78,5.56,1.23c12.11,2.92,22.38,0.68,30.12-9.98
			c4.57-6.31,10.08-11.83,16.5-16.37c0.22-0.15,0.33-0.45,0.81-1.11C515.42,313.26,495.18,315.05,480.45,334.36z M289.43,196.51
			c-0.39,2.84,1.29,3.11,3.58,2.99c3.01-0.17,6.03-0.14,9.04-0.03c2.23,0.08,4.23,0.13,3.75-3.4c19.92,1.41,36.61,8.81,50.5,23.83
			c-39.27-16.24-77.89-16.26-116.7-0.25C250.47,205.63,273.8,195.81,289.43,196.51z M414.84,479.51
			c6.13-4.22,12.31-8.41,18.08-13.09c8.02-6.49,14.62-14.25,18.69-24.46c3.24,6.31,6.21,12.08,9.17,17.85
			c1.25,2.44,1.06,4.66-0.3,7.15c-6.87,12.6-16.06,23.34-26.27,33.27c-4.03,3.92-8.32,7.58-12.44,11.41
			c-1.29,1.2-2.66,1.76-4.47,1.71c-4.32-0.11-8.65-0.04-13.35-0.04c2.85-5.23,1.94-10.69,2.73-15.89c0.47-3.05,1.04-6.09,1.79-9.07
			C409.42,484.62,411.59,481.75,414.84,479.51z M410.43,462.38c0.39-4.21,0.75-8.67,1.23-13.11c0.88-8.19,1.85-16.37,2.75-24.56
			c0.38-3.44,1.41-4.16,4.86-3.56c5.28,0.92,7.94,4.58,9.66,9.16c1.66,4.42,2.01,9.07,0.62,13.54c-0.79,2.53-2.5,4.84-4.08,7.03
			c-0.85,1.17-2.31,1.9-3.51,2.8C418.13,456.58,414.31,459.46,410.43,462.38z M195.85,593.99c0-3.81,0-7.36,0-11.23
			c11.28,3.36,22.57,4.92,34.39,2.95c0.41,1.81,0.8,3.52,1.27,5.57c4.5-3.56,8.34-7.54,13.92-9.31c1.01,5.85,4.93,9.15,10.23,12.02
			C235.36,593.99,215.71,593.99,195.85,593.99z M262.4,580.7c23.43,13.74,46.82,13.85,70.05,0.19c1.95,1.92,0.71,3.39-0.19,4.79
			c-0.93,1.45-1.99,2.81-2.78,4.83c1.65-0.38,3.3-0.75,4.93-1.13c-0.34,4.05-1.08,4.76-4.92,4.76c-21.11,0-42.22,0-63.33,0
			c-4.27,0-4.67-0.33-5.44-4.81c1.78,0.44,3.39,0.83,5.39,1.32C264.9,587.09,260.86,585.28,262.4,580.7z M308.31,513.3l-122.93-0.02
			c0,0-6.32,0.06-9.14-0.04c-0.63-0.02-1.34-0.48-1.85-0.91c-14.24-12.15-27.26-25.35-37.4-41.28c-3.59-5.63-3.77-10.39-0.38-15.92
			c2.77-4.52,5.16-9.29,7.4-14.1c5.92-12.66,4.33-24.67-3.64-35.95c-1.51-2.13-3.14-4.2-4.9-6.13c-1.12-1.23-1.36-2.29-0.24-3.49
			c3.62-3.87,7.09-7.91,10.94-11.53c8.16-7.65,16.56-15.04,24.79-22.62c15.12-13.91,23.83-31.3,27.2-51.39
			c1.87-11.17,3.11-22.45,4.85-33.65c0.6-3.89,1.79-7.7,2.83-11.51c0.3-1.1,1.02-2.08,1.77-3.54c1.03,1.53,1.83,2.67,2.59,3.84
			c2.22,3.4,4.94,6.16,8.91,7.53c1.17,0.4,1.8,0.24,2.14-0.96c1.69-6,2.34-12.06-0.06-17.97c-0.92-2.27-2.69-4.2-4.13-6.36
			c8.4-0.73,14.98-5.59,21.57-11.48c-1.77-1.31-3.31-2.45-4.85-3.58c38.5-21.86,91.1-21.01,127.68,0.04
			c-1.51,1.09-3.01,2.18-4.84,3.49c6.53,5.88,13.09,10.77,22.12,11.55c-7.51,6.72-6.74,14.97-5,23.44c0.41,1.98,1.5,2.7,3.11,1.54
			c2.54-1.82,5.01-3.79,7.24-5.96c1.33-1.29,2.17-3.09,3.58-5.19c0.88,1.9,1.91,3.35,2.23,4.95c1.39,6.98,2.84,13.97,3.77,21.02
			c1.97,14.86,3.87,29.68,9.37,43.81c5.09,13.08,13.79,23.45,23.81,32.85c8.32,7.82,17,15.27,25.36,23.05
			c2.89,2.68,5.34,5.84,7.95,8.81c0.92,1.05,0.75,2-0.21,3.12c-2.06,2.41-4.07,4.88-5.82,7.52c-1.7,2.57-3.03,5.37-4.59,8.19
			c-8.72-10.24-19.58-13.54-32.64-9.56c0.61-3.86,1.28-7.9,1.89-11.96c0.59-3.96-0.34-5-4.4-5c-34.6-0.01-69.2-0.01-103.81-0.01
			c-1.1,0-3.65,0-3.65,0l-4.17,0.11c0,0-0.29,1.71-0.33,2.29c-0.27,3.73-0.09,7.09,0.02,10.43c0.14,3.88,0.37,7.77,0.75,11.63
			l1.44,28.76l3.46,63.89L308.31,513.3z M324.67,571.72c-5.33,1.68-10.56,4.1-16.02,4.77c-3.58,0.44-6.54,1.92-9.82,2.8
			c-0.72,0.19-1.7,0.35-2.27,0.02c-5.17-2.98-11.29-2.46-16.68-4.61c-2.96-1.18-6.07-2-9.11-2.98
			C288.78,565.44,306.7,565.56,324.67,571.72z M399.87,593.97c-19.9,0-39.69,0-60.03,0c4.92-2.86,9.05-6.05,9.95-11.96
			c5.61,1.69,9.45,5.68,13.95,9.29c0.46-2,0.83-3.65,1.27-5.56c11.88,1.91,23.4,0.39,34.86-3.14
			C399.87,586.53,399.87,590.15,399.87,593.97z M127.02,333.91c6.24-11.81,14.54-22.11,23.81-31.64
			c11.06-11.37,22.21-22.66,33.34-33.96c3.42-3.47,7.33-6.24,12.3-7.84c-0.59,3.91-1.02,7.8-1.78,11.62
			c-3.03,15.23-6.18,30.43-9.25,45.65c-2.84,14.09-11.17,24.79-21.14,34.53c-9.02,8.81-18,17.67-26.82,26.68
			c-3.14,3.2-5.76,6.91-8.72,10.52C117.49,371.28,117.08,352.74,127.02,333.91z M121.51,399.81
			C121.51,399.79,121.51,399.8,121.51,399.81L121.51,399.81z M127.79,409.05c5.95,6.28,11.11,12.67,8.94,22.23
			c-1.7,7.47-4.68,14.42-7.74,21.48C119.08,441.89,120.26,421.7,127.79,409.05z M145.49,520.74c-7.34-11.69-12.98-24.13-16.07-37.64
			c-0.12-0.53-0.19-1.07-0.31-1.76c6.47,7.55,12.54,15.06,19.07,22.17c17.85,19.45,37.11,37.36,59.16,52.04
			c9.2,6.12,18.87,11.36,29.86,14.63c-2.87,2.84-6.33,3.31-9.76,3.51c-10.63,0.62-20.58-2.21-30.17-6.47
			C175.02,557.33,158.31,541.18,145.49,520.74z M463.09,492.97c-10.26,28.37-27.02,51.78-52.96,67.86
			c-12.7,7.88-26.34,13.26-41.66,12.91c-4.64-0.11-8.01-1.28-10.16-3.53c22.21-7.29,40.14-21.13,57.37-36
			c17.03-14.7,32.61-30.84,46.64-48.45c1.13-1.42,2.25-2.87,3.38-4.29c0.04-0.05,0.15-0.05,0.72-0.21
			C465.27,485.33,464.44,489.24,463.09,492.97z M466.29,452.74c-3.32-7.8-6.96-15.38-8.07-23.81c-0.67-5.05,0.75-9.57,3.94-13.54
			c1.71-2.13,3.44-4.26,5.24-6.48C474.88,421.37,476.33,441.74,466.29,452.74z M466.37,389.71c-1.33-1.85-2.38-3.71-3.81-5.22
			c-6.46-6.87-12.99-13.68-19.57-20.44c-6.3-6.48-12.75-12.82-19.04-19.31c-6.12-6.32-10.29-13.76-12.76-22.25
			c-5.9-20.29-9.22-41.07-12.41-61.99c7.14,2.16,11.88,7.15,16.68,11.95c14.62,14.64,29.55,29.02,42.33,45.38
			c6.62,8.48,12.28,17.55,15.37,27.98C477.77,361.41,474.94,375.88,466.37,389.71z"/>
	</g>
</g>
<g id="レイヤー_2">
	<path id="path1891" class="st0" d="M199.09,510.24h97.56c0-13.87-0.99-16.62-23.96-16.62c3.67-11.01,18.58-37.64,26.87-37.64
		c7.33,0,16.08,0.4,16.08,17.14c0,18.99,31.97,49.62,39.72,37.13c11.55-18.62-19.86-12.94-19.86-57.85
		c0-61.43,35.85-52.69,35.85-87.2c0-17.27-4.77-19.6-4.77-31.95c0-16.32,14.37-15.37,11.58-28.9c-1.93-9.34-3.44-16.84-4.57-28.14
		c-0.8-8.02-1.05-16.56-9.38-16.22c-9.79,0.4-13.5,17.63-28.71,18.86c-15.18,1.23-28.12-12.92-34-10.9
		c-5.83,2-3.99,17.81-0.54,29.03c5.43,17.64,17.27,40.58-4.32,44.03c-21.58,3.45-58.71,6.91-85.48,42.31
		c-26.77,35.4-25.78,76.94-36.26,89.79c-35.19,43.13-71.25,25.42-71.25,61.3c0,16.06,27.22,27.63,31.54,22.45
		c4.32-5.18-36.68-20.62,9.19-38.85C183.58,502.43,187.08,499.25,199.09,510.24z"/>
</g>
<g id="レイヤー_3">
	<g>
		<path class="st1" d="M181.33,616.35h10.12v3.65c0,0-3.19,0-3.82,0c-0.25,0.59-8.15,18.99-10.46,24.41h-1.26
			c-1.43-3.36-4.79-11.34-5.5-13.02c-0.71,1.68-4.12,9.66-5.59,13.02h-1.26c-2.27-5.42-10-23.82-10.25-24.41c-0.67,0-3.82,0-3.82,0
			v-3.65h10.08v3.65c0,0-1.39,0-2.35,0c0.59,1.34,6.17,14.7,7.02,16.63c0.29-0.71,4.03-9.45,4.24-9.91
			c-0.21-0.42-2.6-6.09-2.86-6.72c-0.63,0-3.82,0-3.82,0v-3.65h6.22c0,0,1.72,4.07,2.44,5.75c0.71-1.72,1.93-4.58,1.93-4.58
			l0.5-1.18h6.22v3.65c0,0-3.15,0-3.82,0c-0.25,0.63-2.69,6.34-2.9,6.76c0.17,0.38,3.32,7.85,4.16,9.87
			c0.92-2.18,6.72-15.67,7.14-16.63c-0.97,0-2.35,0-2.35,0V616.35z"/>
		<path class="st1" d="M197.79,614.42v3.07c0,0,0,7.98,0,9.91c0.46-0.34,0.88-0.67,0.88-0.67c1.09-0.84,2.35-1.3,3.7-1.3
			c3.4,0,6.3,3.02,6.3,6.59c0,0,0,7.86,0,8.91c0.46,0,2.23,0,2.23,0v3.61h-8.32v-3.61c0,0,1.51,0,2.23,0c0-1.05,0-8.91,0-8.91
			c0-1.64-1.05-2.94-2.44-2.94c-0.5,0-1.01,0.17-1.47,0.5c0,0-2.69,2.06-3.11,2.35c0,0.5,0,7.94,0,8.99c0.46,0,2.86,0,2.86,0v3.61
			h-8.95v-3.61c0,0,1.51,0,2.23,0c0-1.13,0-21.76,0-22.85c-0.71,0-2.23,0-2.23,0v-3.65H197.79z"/>
		<path class="st1" d="M218.83,628.62c0,0,0,11.22,0,12.31c0.46,0,2.35,0,2.35,0v3.61h-8.32v-3.61c0,0,1.47,0,2.23,0
			c0-1.05,0-10.67,0-11.68c-0.76,0-2.23,0-2.23,0v-3.65h5.96V628.62z M216.98,616.14c1.34,0,2.44,1.09,2.44,2.48
			c0,1.34-1.09,2.48-2.44,2.48c-1.39,0-2.48-1.13-2.48-2.48C214.5,617.24,215.59,616.14,216.98,616.14z"/>
		<path class="st1" d="M228.61,622.95c0,0,0,1.85,0,2.52c1.01,0,6.34,0,6.34,0v3.65c0,0-5.33,0-6.34,0c0,1.01,0,8.86,0,8.86
			c0,1.81,0.97,2.94,2.48,2.94c0.38,0,0.8-0.17,1.34-0.59c0.04-0.04,0.84-0.84,0.84-0.84l2.48,3.02l-0.97,0.76
			c-1.09,0.84-2.35,1.3-3.7,1.3c-3.57,0-6.34-2.9-6.34-6.59c0,0,0-7.86,0-8.86c-0.67,0-1.76,0-1.76,0v-3.65c0,0,1.09,0,1.76,0
			c0-0.67,0-2.52,0-2.52H228.61z"/>
		<path class="st1" d="M246.97,625.43c4.75,0,8.7,3.95,9.03,8.95l0.04,0.63l-2.52,0.04c0,0-10.75,0-11.8,0v0.04
			c0,3.36,2.31,5.96,5.25,5.96c1.72,0,3.23-0.88,4.24-2.44l0.67-1.05l3.11,2.1l-0.67,1.01c-1.68,2.52-4.45,4.03-7.35,4.03
			c-5.04,0-9.16-4.33-9.16-9.62C237.81,629.75,241.93,625.43,246.97,625.43z M242.6,631.73c1.47,0,7.44,0,8.86,0
			c-0.97-1.64-2.69-2.65-4.49-2.65C245.16,629.08,243.61,630.05,242.6,631.73z"/>
		<path class="st1" d="M282.08,615.97c2.52,0,4.92,0.71,7.06,2.02c0-0.46,0-1.51,0-1.51h3.61v8.44h-3.61c0,0,0-2.02,0-2.44
			c-1.93-1.85-4.41-2.73-7.06-2.73c-5.71,0-10.04,4.62-10.04,10.71c0,6.13,4.33,10.8,10.04,10.8c2.27,0,5.33-0.84,7.1-3.02
			l1.22-1.34l2.81,2.56c0,0-1.05,1.13-1.05,1.18c-2.69,2.81-6.26,4.33-10.08,4.33c-7.73,0-14.28-6.64-14.28-14.49
			S274.35,615.97,282.08,615.97z"/>
		<path class="st1" d="M312.7,640.93v3.61h-6.13v-0.92c-1.09,0.67-2.35,1.01-3.7,1.01c-4.16,0-7.65-3.36-7.65-7.27
			c0-3.95,3.49-7.31,7.65-7.31c1.3,0,2.52,0.34,3.61,0.92c-0.04-0.13-0.08-0.29-0.13-0.42c-0.42-1.05-1.34-1.72-2.35-1.72
			c-0.97,0-2.39,0.21-4.29,0.55l-1.76,0.38l-0.71-3.57l1.81-0.38c2.14-0.38,3.78-0.46,4.96-0.46c3.82,0,6.47,2.69,6.47,6.47
			c0,0,0,8.07,0,9.12C310.93,640.93,312.7,640.93,312.7,640.93z M302.87,640.97c2.1,0,3.74-1.6,3.74-3.66
			c0-2.06-1.64-3.65-3.74-3.65s-3.78,1.6-3.78,3.65C299.09,639.37,300.77,640.97,302.87,640.97z"/>
		<path class="st1" d="M320.13,622.95c0,0,0,1.85,0,2.52c1.01,0,6.34,0,6.34,0v3.65c0,0-5.33,0-6.34,0c0,1.01,0,8.86,0,8.86
			c0,1.81,0.97,2.94,2.48,2.94c0.38,0,0.8-0.17,1.34-0.59c0.04-0.04,0.84-0.84,0.84-0.84l2.48,3.02l-0.97,0.76
			c-1.09,0.84-2.35,1.3-3.7,1.3c-3.57,0-6.34-2.9-6.34-6.59c0,0,0-7.86,0-8.86c-0.67,0-1.76,0-1.76,0v-3.65c0,0,1.09,0,1.76,0
			c0-0.67,0-2.52,0-2.52H320.13z"/>
		<path class="st1" d="M370.91,620.09c0,0-2.31,0-3.15,0c0,1.09,0,19.7,0,20.84c0.71,0,3.15,0,3.15,0v3.61h-10.08v-3.61
			c0,0,2.23,0,3.07,0c0-1.01,0-8.36,0-9.33c-1.05,0-13.57,0-14.62,0c0,0.97,0,8.32,0,9.33c0.71,0,3.11,0,3.11,0v3.61H342.3v-3.61
			c0,0,2.27,0,3.11,0c0-1.13,0-19.74,0-20.84c-0.84,0-3.11,0-3.11,0v-3.61h10.08v3.61c0,0-2.27,0-3.11,0c0,0.97,0,6.89,0,7.86
			c1.05,0,13.57,0,14.62,0c0-0.97,0-6.89,0-7.86c-0.84,0-3.07,0-3.07,0v-3.61h10.08V620.09z"/>
		<path class="st1" d="M381.28,625.43c5.12,0,9.24,4.33,9.24,9.62c0,5.33-4.12,9.66-9.24,9.66c-5.08,0-9.2-4.33-9.2-9.66
			C372.08,629.75,376.2,625.43,381.28,625.43z M381.28,640.97c2.98,0,5.29-2.6,5.29-5.92c0-3.32-2.31-5.92-5.29-5.92
			c-2.94,0-5.25,2.6-5.25,5.92C376.03,638.37,378.34,640.97,381.28,640.97z"/>
		<path class="st1" d="M408.29,625.47v0.59l-0.04,2.44c0,0,0,11.22,0,12.27c0.5,0,2.27,0,2.27,0v3.65h-6.13c0,0,0-1.18,0-1.76
			c-0.42,0.34-0.8,0.63-0.8,0.63c-1.05,0.84-2.35,1.3-3.7,1.3c-3.45,0-6.34-3.02-6.34-6.59c0,0,0-7.86,0-8.86c-0.71,0-2.23,0-2.23,0
			v-3.65h6.13v12.52c0,1.64,1.05,2.94,2.44,2.94c0.5,0,1.01-0.17,1.47-0.5c0,0,2.65-2.02,3.07-2.31c0-0.55,0-7.98,0-8.99
			c-0.76,0-2.23,0-2.23,0v-3.65H408.29z"/>
		<path class="st1" d="M418.91,625.43c0.63,0,1.26,0.17,1.89,0.38c0-0.08,0-0.21,0-0.21h3.61v6.43h-3.61c0,0,0-1.64,0-2.14
			c-0.25-0.17-0.59-0.38-0.59-0.38c-0.29-0.21-0.76-0.42-1.3-0.42c-1.05,0-1.81,0.63-1.81,1.51c0,1.01,0.97,1.76,2.9,2.94l0.17,0.08
			c2.02,1.22,4.58,2.73,4.58,5.59c0,2.98-2.77,5.5-6.05,5.5c-0.84,0-1.6-0.17-2.31-0.42c0,0.13,0,0.25,0,0.25h-3.61v-6.72h3.61
			c0,0,0,1.76,0,2.27c0.42,0.25,1.13,0.71,1.13,0.71c0.29,0.17,0.71,0.25,1.18,0.25c1.22,0,2.18-0.76,2.18-1.76
			c0-0.71-0.84-1.51-2.73-2.65l-0.17-0.08c-2.02-1.22-4.79-2.86-4.79-5.96C413.2,627.82,415.8,625.43,418.91,625.43z"/>
		<path class="st1" d="M435.84,625.43c4.75,0,8.7,3.95,9.03,8.95l0.04,0.63l-2.52,0.04c0,0-10.75,0-11.8,0v0.04
			c0,3.36,2.31,5.96,5.25,5.96c1.72,0,3.23-0.88,4.24-2.44l0.67-1.05l3.11,2.1l-0.67,1.01c-1.68,2.52-4.45,4.03-7.35,4.03
			c-5.04,0-9.16-4.33-9.16-9.62C426.68,629.75,430.8,625.43,435.84,625.43z M431.47,631.73c1.47,0,7.44,0,8.86,0
			c-0.97-1.64-2.69-2.65-4.49-2.65C434.03,629.08,432.48,630.05,431.47,631.73z"/>
	</g>
	<g>
	</g>
	<g>
	</g>
	<g>
	</g>
	<g>
	</g>
	<g>
	</g>
	<g>
	</g>
</g>
</svg>
